<?xml version="1.0" encoding="UTF-8"?>
<svg xmlns="http://www.w3.org/2000/svg" version="1.1" width="200" height="200" viewBox="0 0 200 200"><rect x="0" y="0" width="200" height="200" fill="#ffffff"/><g transform="scale(6.897)"><g transform="translate(0,0)"><path fill-rule="evenodd" d="M9 0L9 1L8 1L8 2L9 2L9 3L8 3L8 4L9 4L9 5L8 5L8 7L9 7L9 8L6 8L6 9L7 9L7 10L6 10L6 11L5 11L5 13L7 13L7 14L6 14L6 15L5 15L5 16L4 16L4 12L3 12L3 10L5 10L5 8L0 8L0 9L3 9L3 10L2 10L2 12L3 12L3 13L0 13L0 15L2 15L2 14L3 14L3 16L1 16L1 17L0 17L0 21L1 21L1 18L4 18L4 17L8 17L8 16L10 16L10 17L11 17L11 18L15 18L15 21L14 21L14 20L13 20L13 21L11 21L11 22L12 22L12 23L15 23L15 25L14 25L14 24L13 24L13 25L11 25L11 26L9 26L9 24L10 24L10 20L9 20L9 19L7 19L7 18L5 18L5 19L2 19L2 20L3 20L3 21L4 21L4 20L5 20L5 19L7 19L7 20L6 20L6 21L8 21L8 23L9 23L9 24L8 24L8 29L9 29L9 28L10 28L10 29L11 29L11 26L13 26L13 27L14 27L14 28L13 28L13 29L14 29L14 28L15 28L15 29L18 29L18 28L17 28L17 27L16 27L16 26L17 26L17 25L18 25L18 27L19 27L19 28L22 28L22 27L23 27L23 26L24 26L24 27L26 27L26 26L24 26L24 25L27 25L27 24L28 24L28 23L27 23L27 22L29 22L29 20L28 20L28 19L27 19L27 16L28 16L28 15L27 15L27 12L28 12L28 11L27 11L27 12L25 12L25 9L26 9L26 8L25 8L25 9L24 9L24 8L23 8L23 9L22 9L22 8L20 8L20 9L18 9L18 8L17 8L17 9L16 9L16 10L14 10L14 9L15 9L15 8L16 8L16 7L17 7L17 6L18 6L18 7L19 7L19 5L20 5L20 3L21 3L21 0L19 0L19 1L20 1L20 2L19 2L19 5L15 5L15 3L14 3L14 5L13 5L13 6L12 6L12 7L11 7L11 5L12 5L12 4L13 4L13 2L10 2L10 0ZM11 0L11 1L12 1L12 0ZM14 0L14 1L15 1L15 2L16 2L16 3L17 3L17 4L18 4L18 3L17 3L17 0ZM9 3L9 4L10 4L10 5L11 5L11 4L12 4L12 3L11 3L11 4L10 4L10 3ZM14 5L14 6L13 6L13 7L12 7L12 8L10 8L10 9L8 9L8 10L7 10L7 11L6 11L6 12L7 12L7 13L8 13L8 12L11 12L11 13L10 13L10 16L11 16L11 17L13 17L13 16L14 16L14 17L15 17L15 18L16 18L16 19L17 19L17 20L16 20L16 21L15 21L15 22L16 22L16 21L17 21L17 23L16 23L16 25L15 25L15 26L16 26L16 25L17 25L17 24L18 24L18 25L19 25L19 27L20 27L20 23L19 23L19 22L18 22L18 21L19 21L19 20L21 20L21 19L22 19L22 18L21 18L21 17L20 17L20 16L21 16L21 14L22 14L22 17L23 17L23 18L24 18L24 19L25 19L25 21L26 21L26 20L27 20L27 19L25 19L25 18L24 18L24 17L26 17L26 16L27 16L27 15L26 15L26 13L25 13L25 12L24 12L24 9L23 9L23 12L22 12L22 13L20 13L20 12L21 12L21 11L22 11L22 10L21 10L21 9L20 9L20 10L18 10L18 9L17 9L17 10L16 10L16 11L13 11L13 10L11 10L11 9L14 9L14 6L15 6L15 7L16 7L16 6L15 6L15 5ZM9 6L9 7L10 7L10 6ZM20 6L20 7L21 7L21 6ZM27 8L27 9L28 9L28 10L29 10L29 9L28 9L28 8ZM10 10L10 11L11 11L11 10ZM0 11L0 12L1 12L1 11ZM12 12L12 13L11 13L11 14L12 14L12 15L15 15L15 16L16 16L16 15L18 15L18 16L17 16L17 17L16 17L16 18L17 18L17 19L18 19L18 18L20 18L20 17L19 17L19 14L20 14L20 13L19 13L19 14L17 14L17 13L18 13L18 12L15 12L15 13L14 13L14 12ZM23 12L23 13L22 13L22 14L23 14L23 13L24 13L24 14L25 14L25 13L24 13L24 12ZM12 13L12 14L14 14L14 13ZM15 13L15 14L16 14L16 13ZM28 13L28 14L29 14L29 13ZM6 15L6 16L7 16L7 15ZM23 15L23 16L24 16L24 15ZM3 16L3 17L4 17L4 16ZM28 17L28 18L29 18L29 17ZM11 19L11 20L12 20L12 19ZM8 20L8 21L9 21L9 20ZM17 20L17 21L18 21L18 20ZM13 21L13 22L14 22L14 21ZM21 21L21 24L24 24L24 21ZM22 22L22 23L23 23L23 22ZM18 23L18 24L19 24L19 23ZM25 23L25 24L27 24L27 23ZM13 25L13 26L14 26L14 25ZM22 25L22 26L21 26L21 27L22 27L22 26L23 26L23 25ZM28 25L28 26L27 26L27 28L24 28L24 29L27 29L27 28L28 28L28 26L29 26L29 25ZM0 0L0 7L7 7L7 0ZM1 1L1 6L6 6L6 1ZM2 2L2 5L5 5L5 2ZM22 0L22 7L29 7L29 0ZM23 1L23 6L28 6L28 1ZM24 2L24 5L27 5L27 2ZM0 22L0 29L7 29L7 22ZM1 23L1 28L6 28L6 23ZM2 24L2 27L5 27L5 24Z" fill="#000000"/></g></g></svg>
