<?xml version="1.0" encoding="UTF-8"?>
<svg xmlns="http://www.w3.org/2000/svg" version="1.1" width="200" height="200" viewBox="0 0 200 200"><rect x="0" y="0" width="200" height="200" fill="#ffffff"/><g transform="scale(6.897)"><g transform="translate(0,0)"><path fill-rule="evenodd" d="M8 0L8 1L10 1L10 3L11 3L11 2L12 2L12 0L11 0L11 1L10 1L10 0ZM14 0L14 2L13 2L13 3L14 3L14 4L15 4L15 5L16 5L16 4L15 4L15 3L16 3L16 2L18 2L18 3L17 3L17 6L16 6L16 7L17 7L17 8L13 8L13 5L12 5L12 7L11 7L11 4L10 4L10 5L9 5L9 2L8 2L8 5L9 5L9 6L8 6L8 7L9 7L9 6L10 6L10 9L11 9L11 10L8 10L8 9L9 9L9 8L8 8L8 9L7 9L7 8L6 8L6 9L4 9L4 8L0 8L0 10L1 10L1 11L0 11L0 15L2 15L2 16L0 16L0 17L1 17L1 18L0 18L0 19L1 19L1 18L2 18L2 19L4 19L4 20L5 20L5 21L7 21L7 20L6 20L6 19L9 19L9 18L10 18L10 17L8 17L8 18L3 18L3 17L4 17L4 16L3 16L3 15L4 15L4 14L5 14L5 16L6 16L6 17L7 17L7 16L6 16L6 15L7 15L7 14L9 14L9 15L8 15L8 16L9 16L9 15L10 15L10 16L11 16L11 18L12 18L12 17L14 17L14 18L15 18L15 19L14 19L14 20L15 20L15 19L16 19L16 24L15 24L15 23L14 23L14 22L15 22L15 21L14 21L14 22L13 22L13 19L12 19L12 21L11 21L11 19L10 19L10 21L11 21L11 22L10 22L10 23L9 23L9 24L10 24L10 25L8 25L8 29L9 29L9 26L10 26L10 28L11 28L11 29L15 29L15 28L16 28L16 29L17 29L17 26L18 26L18 24L17 24L17 23L19 23L19 24L20 24L20 25L24 25L24 26L25 26L25 25L26 25L26 26L28 26L28 27L27 27L27 29L28 29L28 27L29 27L29 25L27 25L27 24L26 24L26 22L27 22L27 23L28 23L28 24L29 24L29 23L28 23L28 22L29 22L29 21L27 21L27 18L28 18L28 15L29 15L29 13L27 13L27 12L26 12L26 11L28 11L28 12L29 12L29 11L28 11L28 10L29 10L29 8L28 8L28 10L26 10L26 11L25 11L25 13L27 13L27 14L24 14L24 12L23 12L23 13L22 13L22 12L20 12L20 11L24 11L24 10L25 10L25 9L27 9L27 8L24 8L24 10L23 10L23 9L22 9L22 8L21 8L21 6L20 6L20 5L21 5L21 4L20 4L20 3L21 3L21 2L20 2L20 3L19 3L19 1L21 1L21 0L19 0L19 1L17 1L17 0ZM15 1L15 2L14 2L14 3L15 3L15 2L16 2L16 1ZM18 3L18 4L19 4L19 3ZM18 5L18 6L17 6L17 7L18 7L18 6L19 6L19 8L20 8L20 6L19 6L19 5ZM14 6L14 7L15 7L15 6ZM11 8L11 9L12 9L12 10L13 10L13 8ZM6 9L6 10L5 10L5 11L4 11L4 10L3 10L3 11L2 11L2 12L1 12L1 13L2 13L2 12L3 12L3 13L5 13L5 14L7 14L7 13L5 13L5 12L7 12L7 11L8 11L8 10L7 10L7 9ZM14 9L14 13L13 13L13 12L12 12L12 11L11 11L11 13L9 13L9 14L11 14L11 15L12 15L12 14L13 14L13 16L15 16L15 15L16 15L16 19L17 19L17 17L18 17L18 19L19 19L19 21L20 21L20 19L21 19L21 20L22 20L22 18L24 18L24 19L23 19L23 20L26 20L26 19L25 19L25 18L26 18L26 17L27 17L27 15L24 15L24 14L23 14L23 15L22 15L22 14L20 14L20 15L19 15L19 14L18 14L18 15L17 15L17 14L15 14L15 11L17 11L17 12L18 12L18 13L20 13L20 12L18 12L18 11L17 11L17 10L18 10L18 9L17 9L17 10L16 10L16 9ZM20 9L20 10L19 10L19 11L20 11L20 10L21 10L21 9ZM6 10L6 11L7 11L7 10ZM14 14L14 15L15 15L15 14ZM18 15L18 16L19 16L19 15ZM21 15L21 16L22 16L22 15ZM23 15L23 17L25 17L25 16L24 16L24 15ZM2 16L2 17L3 17L3 16ZM1 20L1 21L2 21L2 20ZM8 20L8 22L9 22L9 20ZM17 21L17 22L18 22L18 21ZM21 21L21 24L24 24L24 21ZM22 22L22 23L23 23L23 22ZM12 23L12 24L11 24L11 27L12 27L12 26L13 26L13 28L15 28L15 27L16 27L16 26L15 26L15 27L14 27L14 25L13 25L13 23ZM16 24L16 25L17 25L17 24ZM19 26L19 28L18 28L18 29L19 29L19 28L20 28L20 29L22 29L22 26ZM23 28L23 29L24 29L24 28ZM25 28L25 29L26 29L26 28ZM0 0L0 7L7 7L7 0ZM1 1L1 6L6 6L6 1ZM2 2L2 5L5 5L5 2ZM22 0L22 7L29 7L29 0ZM23 1L23 6L28 6L28 1ZM24 2L24 5L27 5L27 2ZM0 22L0 29L7 29L7 22ZM1 23L1 28L6 28L6 23ZM2 24L2 27L5 27L5 24Z" fill="#000000"/></g></g></svg>
